<svg xmlns="http://www.w3.org/2000/svg" viewBox="0 0 640 360" role="img" aria-label="Ernest et Celestine">
  <rect width="640" height="360" fill="#fff2dc"/>
  <path d="M0 250c82-46 163-44 243 6 67 41 135 40 203-5 65-44 130-44 194 0v109H0z" fill="#d9c9a8"/>
  <circle cx="245" cy="176" r="82" fill="#b9794d"/>
  <circle cx="414" cy="201" r="48" fill="#f5d9c8"/>
  <circle cx="216" cy="164" r="10" fill="#1c2535"/>
  <circle cx="276" cy="164" r="10" fill="#1c2535"/>
  <circle cx="399" cy="194" r="7" fill="#1c2535"/>
  <circle cx="429" cy="194" r="7" fill="#1c2535"/>
  <path d="M204 213c28 19 58 20 90 2M393 222c16 11 32 11 48 0" fill="none" stroke="#5b3326" stroke-width="8" stroke-linecap="round"/>
  <text x="38" y="315" fill="#6d4b34" font-family="Arial, sans-serif" font-size="46" font-weight="900">Ernest et Celestine</text>
</svg>
