<svg width="209" height="100" viewBox="0 0 209 100" fill="none" xmlns="http://www.w3.org/2000/svg">
<path d="M50.3272 0C20.0926 0 0 19.8733 0 49.6832C0 79.4931 20.0926 99.3663 50.3272 99.3663C80.5617 99.3663 100.654 79.4931 100.654 49.6832C100.654 19.8733 80.5617 0 50.3272 0ZM50.9012 49.7787C47.6481 50.1609 44.2994 47.7723 44.3951 44.1416L44.5864 34.205C44.5864 30.9564 47.0741 29.3322 49.6574 29.0455C53.0062 28.7589 56.0679 30.4787 56.1636 34.205L56.3549 43.3772C56.3549 47.2946 53.7716 49.3965 50.9969 49.6832L50.9012 49.7787ZM74.2469 43.1861C70.9938 43.5683 67.6451 41.1797 67.7407 37.549L67.9321 27.6124C67.9321 24.3639 70.4198 22.7396 73.0031 22.453C76.3519 22.1663 79.4136 23.8861 79.5093 27.6124L79.7006 36.7846C79.7006 40.702 77.1173 42.804 74.3426 43.0906L74.2469 43.1861Z" fill="#4E301E"/>
<path d="M157.87 0C127.636 0 107.543 19.8733 107.543 49.6832C107.543 79.4931 127.636 99.3663 157.87 99.3663C188.105 99.3663 208.198 79.4931 208.198 49.6832C208.198 19.8733 188.105 0 157.87 0ZM125.914 68.0277C123.809 68.3144 121.608 66.5946 121.608 63.9193V56.7535C121.704 54.4604 123.33 53.2183 125.052 53.0272C127.253 52.8361 129.262 54.0782 129.358 56.7535V63.346C129.549 66.1168 127.731 67.7411 125.914 67.9322V68.0277ZM145.623 75.4802C143.519 75.7668 141.318 74.047 141.318 71.3718V64.2059C141.414 61.9129 143.04 60.6708 144.762 60.4797C146.963 60.2886 148.972 61.5307 149.068 64.2059V70.7985C149.259 73.5693 147.441 75.1936 145.623 75.3847V75.4802Z" fill="#4E301E"/>
</svg>
