<svg xmlns="http://www.w3.org/2000/svg" viewBox="0 0 640 360" role="img" aria-label="Hilda">
  <rect width="640" height="360" fill="#f7dcc9"/>
  <path d="M0 245c86-60 160-66 223-18 75 57 149 55 222-6 55-46 121-46 195 0v139H0z" fill="#b9d0e4"/>
  <circle cx="230" cy="172" r="66" fill="#ffd5bc"/>
  <path d="M154 162c28-80 87-109 173-86-36 22-54 58-51 108-38-19-79-26-122-22z" fill="#355f92"/>
  <circle cx="210" cy="164" r="8" fill="#2b2b2b"/>
  <circle cx="250" cy="164" r="8" fill="#2b2b2b"/>
  <path d="M200 205c27 17 54 16 80-2" fill="none" stroke="#7a3f32" stroke-width="8" stroke-linecap="round"/>
  <circle cx="438" cy="178" r="66" fill="#f4c494"/>
  <rect x="389" y="107" width="95" height="105" rx="33" fill="#23282f"/>
  <circle cx="419" cy="174" r="8" fill="#fff"/>
  <circle cx="459" cy="174" r="8" fill="#fff"/>
  <text x="54" y="315" fill="#294c78" font-family="Arial, sans-serif" font-size="58" font-weight="900">Hilda - Saison 1</text>
</svg>
