<svg width="343" height="371" viewBox="0 0 343 371" fill="none" xmlns="http://www.w3.org/2000/svg">
<path d="M225.412 17.0373C225.571 18.9619 224.346 20.0061 223.627 20.518C217.887 24.613 218.318 13.0106 218.235 3.43512C218.22 1.8722 219.089 1.03273 219.952 0.432131C220.897 -0.229891 224.021 -0.236716 224.134 1.1624L225.42 17.0373H225.412Z" fill="#D6723A"/>
<path d="M269.498 45.2517C267.471 46.2004 265.875 45.5861 264.854 44.5897C263.78 43.5455 263.75 41.4092 265.724 40.5152L281.621 33.3285C283.179 32.6255 284.488 34.5638 284.639 35.4579C284.843 36.6932 284.276 38.338 282.491 39.1707L269.498 45.2517Z" fill="#DC7339"/>
<path d="M251.732 26.6333C250.287 28.9674 248.828 29.7455 246.498 28.8377C244.449 28.0392 244.365 26.1282 245.689 24.1285L254.613 10.6287C255.423 9.40704 258.002 9.50259 258.902 10.1373C259.802 10.772 260.324 12.7718 259.507 14.089L251.732 26.6264V26.6333Z" fill="#DC7339"/>
<path d="M49.3504 349.823C41.3638 346.424 29.6107 340.2 19.5744 329.116C-5.52004 301.393 -0.271234 265.33 2.2246 255.87C10.7104 223.684 31.7283 196.746 55.3555 171.91C82.492 143.388 79.9281 124.442 92.4148 96.6438C97.5199 85.2802 103.881 75.2202 112.548 65.8154C149.6 25.6368 216.866 23.4391 254.198 63.8907C255.256 65.0373 256.164 66.0884 257.011 67.3305C274.179 92.4737 277.772 116.798 279.247 145.251C281.395 186.713 280.041 185.764 281.614 211.576C284.7 262.149 290.039 268.08 284.684 284.644C274.837 315.111 244.797 332.112 229.625 340.698C156.111 382.296 66.5414 355.31 49.358 349.816L49.3504 349.823Z" fill="#F59D8A"/>
<path d="M219.642 141.381C220.345 149.51 220.163 157.795 213.939 157.939C211.284 158 208.274 156.342 207.911 153.571C206.792 145.067 207.291 136.549 213.962 136.481C216.495 136.454 219.384 138.501 219.634 141.381H219.642Z" fill="#533920"/>
<path d="M254.258 152.759C254.22 155.844 251.263 157.741 248.858 157.884C241.461 158.328 241.696 149.96 243.08 141.347C243.564 138.324 246.097 136.618 248.903 136.645C251.656 136.665 254.439 138.515 254.402 141.552L254.258 152.752V152.759Z" fill="#553A21"/>
<path d="M228.922 178.939C236.462 179.601 239.071 171.91 240.69 172.06C241.439 172.128 242.618 173.411 242.21 174.353C239.986 179.465 235.048 182.393 229.511 182.4C219.226 182.4 215.043 173.452 217.781 172.162C220.67 170.804 220.738 178.229 228.929 178.946L228.922 178.939Z" fill="#5B361F"/>
<path d="M159.704 358.545C142.612 362.421 114.295 366.325 82.0914 358.524C72.6073 356.224 64.2349 353.262 57.0121 350.15C56.1046 350.43 55.076 350.559 54.4029 350.02C31.7513 331.552 46.0002 297.263 59.4248 277.635C64.5904 265.636 67.6761 253.017 68.6745 239.79C78.983 181.252 143.519 166.265 181.834 192.821C203.487 207.829 207.896 232.03 210.059 244.213C212.933 260.408 208.736 263.944 211.655 295.113C213.455 314.326 215.407 316.762 213.455 323.225C210.12 334.296 198.148 347.918 159.704 358.551V358.545Z" fill="#FDC0AF"/>
<path d="M172.312 264.428C172.312 267.063 169.786 268.66 167.91 268.83C161.95 269.37 161.565 261.828 162.677 253.877C162.987 251.645 165.218 250.096 167.146 249.932C169.468 249.734 172.274 251.529 172.282 254.047L172.312 264.428Z" fill="#543A24"/>
<path d="M199.289 263.343C199.312 265.95 197.489 267.39 195.213 267.711C189.351 268.537 188.724 260.9 190.055 252.71C190.418 250.478 192.717 249.536 194.63 249.604C196.809 249.68 199.176 251.051 199.198 253.529L199.297 263.343H199.289Z" fill="#583D25"/>
<path d="M187.846 289.722C182.756 293.619 175.601 292.144 171.994 287.36C169.982 284.692 168.787 281.716 169.672 278.256L192.611 277.914C193.36 282.31 191.476 286.951 187.854 289.728L187.846 289.722Z" fill="#553922"/>
<path d="M185.6 288.609C183.324 290.595 178.392 289.258 175.806 287.968C175.987 285.292 178.695 284.767 180.813 284.651C182.582 284.555 186.326 286.773 185.6 288.609Z" fill="#D56E3E"/>
<path d="M317.395 356.913L199.947 364.946C195.379 365.26 191.825 361.418 192.989 357.418L212.419 290.438C213.137 287.954 215.527 286.152 218.371 285.961L335.819 277.928C340.387 277.614 343.942 281.456 342.777 285.456L323.347 352.436C322.629 354.92 320.239 356.722 317.395 356.913Z" fill="#182F67"/>
<path d="M206.936 332.48C206.769 332.48 206.603 332.459 206.437 332.418C205.416 332.173 204.811 331.224 205.083 330.296L207.435 322.413C207.707 321.492 208.766 320.946 209.787 321.191C210.808 321.437 211.413 322.386 211.141 323.314L208.789 331.197C208.562 331.968 207.783 332.48 206.936 332.48Z" fill="#0F213D"/>
<path d="M316.684 354.026L209 361.145C206.512 361.308 204.591 359.206 205.249 357.036L223.552 296.458C223.953 295.127 225.246 294.164 226.774 294.062L333.421 286.937C335.887 286.773 337.808 288.841 337.188 291.004L319.921 351.59C319.535 352.948 318.235 353.931 316.684 354.033V354.026Z" fill="white"/>
<path d="M276.486 335.701H253.479V358.551H276.486V335.701Z" fill="#182F67"/>
<path d="M319.021 368.522C319.482 369.287 318.877 370.215 317.917 370.236L275.616 371C274.769 371 273.99 370.577 273.589 369.901L253.479 335.694H299.266L319.014 368.522H319.021Z" fill="white"/>
</svg>
