<svg width="589" height="193" viewBox="0 0 589 193" fill="none" xmlns="http://www.w3.org/2000/svg">
<g clip-path="url(#clip0_518_644)">
<path d="M434.191 45.8613C404.148 45.8613 383.864 65.7346 383.864 95.5445V191.089H416.395V122.679H418.309V124.59C418.309 135.482 428.259 145.228 444.907 145.228C469.018 145.228 484.518 126.692 484.518 97.6465C484.518 63.8237 464.426 45.8613 434.191 45.8613ZM434.191 114.653C423.475 114.653 416.395 106.819 416.395 95.5445C416.395 84.2702 423.475 76.4356 434.191 76.4356C444.907 76.4356 452.179 84.2702 452.179 95.5445C452.179 106.819 444.907 114.653 434.191 114.653Z" fill="#4E301E"/>
<path d="M61.0432 7.64355C24.4938 7.64355 0 28.8544 0 60.5752V143.317H32.5309V91.1495H34.4444V93.0604C34.4444 105.099 47.8395 113.125 68.5062 113.125C99.1234 113.125 122.086 94.5891 122.086 60.5752C122.086 28.8544 97.7839 7.64355 61.0432 7.64355ZM61.0432 83.1238C44.0123 83.1238 32.5309 74.1426 32.5309 60.5752C32.5309 47.0079 44.0123 38.2178 61.0432 38.2178C78.0741 38.2178 89.5555 47.199 89.5555 60.5752C89.5555 73.9515 78.0741 83.1238 61.0432 83.1238Z" fill="#4E301E"/>
<path d="M161.793 0H129.262V143.317H161.793V0Z" fill="#4E301E"/>
<path d="M556.469 47.7722V98.6019C556.469 108.156 549.963 114.653 540.204 114.653C530.444 114.653 524.13 108.156 524.13 98.6019V47.7722H491.599V97.0732C491.599 125.928 499.827 145.228 530.444 145.228C543.839 145.228 554.556 139.686 554.556 126.119V123.443H556.469V153.444C556.469 161.47 550.92 166.247 541.543 166.247C532.741 166.247 526.617 162.426 526.617 153.827H494.086C494.086 180.77 513.222 193 539.63 193C570.056 193 589 176.948 589 151.151V47.7722H556.469Z" fill="#4E301E"/>
<path d="M219.105 45.8613C188.87 45.8613 168.778 65.7346 168.778 95.5445C168.778 125.354 188.87 145.228 219.105 145.228C249.34 145.228 269.432 125.354 269.432 95.5445C269.432 65.7346 249.34 45.8613 219.105 45.8613ZM219.679 95.64C216.426 96.0222 213.077 93.6336 213.173 90.0029L213.364 80.0663C213.364 76.8178 215.852 75.1935 218.435 74.9069C221.784 74.6202 224.846 76.34 224.941 80.0663L225.133 89.2386C225.133 93.1559 222.549 95.2579 219.775 95.5445L219.679 95.64ZM243.025 89.0475C239.772 89.4296 236.423 87.041 236.519 83.4103L236.71 73.4737C236.71 70.2252 239.198 68.6009 241.781 68.3143C245.13 68.0277 248.191 69.7475 248.287 73.4737L248.478 82.646C248.478 86.5633 245.895 88.6653 243.12 88.9519L243.025 89.0475Z" fill="#4E301E"/>
<path d="M326.648 45.8613C296.414 45.8613 276.321 65.7346 276.321 95.5445C276.321 125.354 296.414 145.228 326.648 145.228C356.883 145.228 376.975 125.354 376.975 95.5445C376.975 65.7346 356.883 45.8613 326.648 45.8613ZM294.691 113.889C292.586 114.176 290.386 112.456 290.386 109.781V102.615C290.482 100.322 292.108 99.0796 293.83 98.8886C296.031 98.6975 298.04 99.9395 298.136 102.615V109.207C298.327 111.978 296.509 113.602 294.691 113.794V113.889ZM314.401 121.342C312.296 121.628 310.096 119.908 310.096 117.233V110.067C310.191 107.774 311.818 106.532 313.54 106.341C315.741 106.15 317.75 107.392 317.846 110.067V116.66C318.037 119.431 316.219 121.055 314.401 121.246V121.342Z" fill="#4E301E"/>
</g>
<defs>
<clipPath id="clip0_518_644">
<rect width="589" height="193" fill="white"/>
</clipPath>
</defs>
</svg>
