<svg xmlns="http://www.w3.org/2000/svg" viewBox="0 0 640 360" role="img" aria-label="Il etait une fois la vie">
  <rect width="640" height="360" fill="#ffe8db"/>
  <path d="M0 269c67-38 134-38 201 0 67 38 134 38 201 0s143-40 238-6v97H0z" fill="#f7b3a3"/>
  <circle cx="204" cy="162" r="70" fill="#e74842"/>
  <circle cx="326" cy="176" r="58" fill="#ff8c54"/>
  <circle cx="444" cy="150" r="64" fill="#d83b34"/>
  <circle cx="181" cy="145" r="10" fill="#fff"/>
  <circle cx="223" cy="145" r="10" fill="#fff"/>
  <circle cx="305" cy="161" r="9" fill="#fff"/>
  <circle cx="343" cy="161" r="9" fill="#fff"/>
  <circle cx="423" cy="135" r="10" fill="#fff"/>
  <circle cx="464" cy="135" r="10" fill="#fff"/>
  <path d="M120 103c81-50 157-51 229-2M376 97c47-29 92-32 136-8" fill="none" stroke="#c2262f" stroke-width="12" stroke-linecap="round"/>
  <text x="32" y="315" fill="#8a2f24" font-family="Arial, sans-serif" font-size="44" font-weight="900">Il etait une fois... la vie</text>
</svg>
