<svg width="62" height="21" viewBox="0 0 62 21" fill="none" xmlns="http://www.w3.org/2000/svg">
<path d="M7.15998 11.84C4.99998 11.84 3.59998 11 3.59998 9.74V9.54H3.39998V15H-1.70693e-05V6.34C-1.70693e-05 3.02 2.55998 0.799999 6.37998 0.799999C10.22 0.799999 12.76 3.02 12.76 6.34C12.76 9.9 10.36 11.84 7.15998 11.84ZM3.39998 6.34C3.39998 7.76 4.59998 8.7 6.37998 8.7C8.15998 8.7 9.35998 7.76 9.35998 6.34C9.35998 4.94 8.15998 4 6.37998 4C4.59998 4 3.39998 4.94 3.39998 6.34ZM13.5058 15V-1.19209e-06H16.9058V15H13.5058ZM17.637 10C17.637 6.88 19.737 4.8 22.897 4.8C26.057 4.8 28.157 6.88 28.157 10C28.157 13.12 26.057 15.2 22.897 15.2C19.737 15.2 17.637 13.12 17.637 10ZM21.037 10C21.037 11.18 21.777 12 22.897 12C24.017 12 24.757 11.18 24.757 10C24.757 8.82 24.017 8 22.897 8C21.777 8 21.037 8.82 21.037 10ZM28.8776 10C28.8776 6.88 30.9776 4.8 34.1376 4.8C37.2976 4.8 39.3976 6.88 39.3976 10C39.3976 13.12 37.2976 15.2 34.1376 15.2C30.9776 15.2 28.8776 13.12 28.8776 10ZM32.2776 10C32.2776 11.18 33.0176 12 34.1376 12C35.2576 12 35.9976 11.18 35.9976 10C35.9976 8.82 35.2576 8 34.1376 8C33.0176 8 32.2776 8.82 32.2776 10ZM50.6383 10.22C50.6383 13.26 49.0183 15.2 46.4983 15.2C44.7583 15.2 43.7183 14.18 43.7183 13.04V12.84H43.5183V20H40.1183V10C40.1183 6.88 42.2383 4.8 45.3783 4.8C48.5383 4.8 50.6383 6.68 50.6383 10.22ZM47.2583 10C47.2583 8.82 46.4983 8 45.3783 8C44.2583 8 43.5183 8.82 43.5183 10C43.5183 11.18 44.2583 12 45.3783 12C46.4983 12 47.2583 11.18 47.2583 10ZM58.1584 16.06V12.92H57.9584V13.2C57.9584 14.62 56.8384 15.2 55.4384 15.2C52.2384 15.2 51.3784 13.18 51.3784 10.16V5H54.7784V10.32C54.7784 11.32 55.4584 12 56.4584 12C57.4784 12 58.1584 11.32 58.1584 10.32V5H61.5584V15.82C61.5584 18.52 59.5784 20.2 56.3984 20.2C53.6384 20.2 51.6384 18.92 51.6384 16.1H55.0384C55.0384 17 55.6784 17.4 56.5984 17.4C57.5784 17.4 58.1584 16.9 58.1584 16.06Z" fill="#4E301E"/>
</svg>
