<svg width="63" height="20" viewBox="0 0 63 20" fill="none" xmlns="http://www.w3.org/2000/svg">
<g clip-path="url(#clip0_554_1261)">
<path d="M46.4415 4.67773C43.2281 4.67773 41.0585 6.70496 41.0585 9.7458V19.4921H44.538V12.5137H44.7427V12.7087C44.7427 13.8198 45.807 14.8139 47.5877 14.8139C50.1667 14.8139 51.8246 12.9231 51.8246 9.96022C51.8246 6.51004 49.6754 4.67773 46.4415 4.67773ZM46.4415 11.6951C45.2953 11.6951 44.538 10.8959 44.538 9.7458C44.538 8.59574 45.2953 7.79655 46.4415 7.79655C47.5877 7.79655 48.3655 8.59574 48.3655 9.7458C48.3655 10.8959 47.5877 11.6951 46.4415 11.6951Z" fill="#4E301E"/>
<path d="M6.52924 0.779297C2.61988 0.779297 0 2.94297 0 6.17874V14.619H3.47953V9.29755H3.68421V9.49248C3.68421 10.7205 5.11696 11.5392 7.32748 11.5392C10.6023 11.5392 13.0585 9.64842 13.0585 6.17874C13.0585 2.94297 10.4591 0.779297 6.52924 0.779297ZM6.52924 8.47886C4.7076 8.47886 3.47953 7.56271 3.47953 6.17874C3.47953 4.79477 4.7076 3.89811 6.52924 3.89811C8.35088 3.89811 9.57895 4.81426 9.57895 6.17874C9.57895 7.54322 8.35088 8.47886 6.52924 8.47886Z" fill="#4E301E"/>
<path d="M17.3056 0H13.826V14.6194H17.3056V0Z" fill="#4E301E"/>
<path d="M59.5204 4.87305V10.0581C59.5204 11.0327 58.8245 11.6954 57.7807 11.6954C56.7368 11.6954 56.0614 11.0327 56.0614 10.0581V4.87305H52.5818V9.90213C52.5818 12.8455 53.462 14.8143 56.7368 14.8143C58.1696 14.8143 59.3158 14.249 59.3158 12.865V12.5921H59.5204V15.6524C59.5204 16.4711 58.9269 16.9584 57.924 16.9584C56.9824 16.9584 56.3275 16.5686 56.3275 15.6914H52.8479C52.8479 18.4399 54.8947 19.6874 57.7193 19.6874C60.9737 19.6874 63 18.05 63 15.4185V4.87305H59.5204Z" fill="#4E301E"/>
<path d="M23.4357 4.67773C20.2017 4.67773 18.0526 6.70496 18.0526 9.7458C18.0526 12.7866 20.2017 14.8139 23.4357 14.8139C26.6696 14.8139 28.8187 12.7866 28.8187 9.7458C28.8187 6.70496 26.6696 4.67773 23.4357 4.67773ZM23.4971 9.75555C23.1491 9.79454 22.7909 9.55088 22.8012 9.18052L22.8216 8.1669C22.8216 7.83553 23.0877 7.66984 23.364 7.64061C23.7222 7.61137 24.0497 7.7868 24.0599 8.1669L24.0804 9.10255C24.0804 9.50215 23.8041 9.71656 23.5073 9.7458L23.4971 9.75555ZM25.9941 9.08306C25.6462 9.12204 25.288 8.87838 25.2982 8.50802L25.3187 7.49441C25.3187 7.16304 25.5848 6.99735 25.8611 6.96811C26.2193 6.93887 26.5468 7.11431 26.557 7.49441L26.5775 8.43005C26.5775 8.82965 26.3012 9.04407 26.0044 9.07331L25.9941 9.08306Z" fill="#4E301E"/>
<path d="M34.9386 4.67773C31.7047 4.67773 29.5555 6.70496 29.5555 9.7458C29.5555 12.7866 31.7047 14.8139 34.9386 14.8139C38.1725 14.8139 40.3216 12.7866 40.3216 9.7458C40.3216 6.70496 38.1725 4.67773 34.9386 4.67773ZM31.5205 11.6171C31.2953 11.6463 31.0599 11.4709 31.0599 11.198V10.467C31.0702 10.2331 31.2441 10.1064 31.4283 10.0869C31.6637 10.0674 31.8786 10.1941 31.8889 10.467V11.1395C31.9093 11.4222 31.7149 11.5879 31.5205 11.6073V11.6171ZM33.6286 12.3773C33.4035 12.4065 33.1681 12.2311 33.1681 11.9582V11.2272C33.1783 10.9933 33.3523 10.8666 33.5365 10.8471C33.7719 10.8276 33.9868 10.9543 33.9971 11.2272V11.8997C34.0175 12.1824 33.8231 12.3481 33.6286 12.3676V12.3773Z" fill="#4E301E"/>
</g>
<defs>
<clipPath id="clip0_554_1261">
<rect width="63" height="19.6875" fill="white"/>
</clipPath>
</defs>
</svg>
