<svg xmlns="http://www.w3.org/2000/svg" viewBox="0 0 640 360" role="img" aria-label="Tumble Leaf">
  <rect width="640" height="360" fill="#d9f0f2"/>
  <path d="M0 255c91-45 171-42 241 3 84 53 163 54 249 0 50-31 99-36 150-11v113H0z" fill="#8acb8a"/>
  <circle cx="228" cy="168" r="63" fill="#e2a34e"/>
  <circle cx="369" cy="160" r="66" fill="#39aec0"/>
  <circle cx="492" cy="173" r="58" fill="#df5aa8"/>
  <circle cx="211" cy="153" r="11" fill="#fff"/>
  <circle cx="247" cy="153" r="11" fill="#fff"/>
  <circle cx="350" cy="145" r="12" fill="#fff"/>
  <circle cx="388" cy="145" r="12" fill="#fff"/>
  <circle cx="475" cy="159" r="10" fill="#fff"/>
  <circle cx="510" cy="159" r="10" fill="#fff"/>
  <path d="M100 137c65-68 142-92 233-64-55 13-102 45-143 95-29-24-59-34-90-31z" fill="#f4cf48"/>
  <path d="M447 95c34-37 78-53 132-44-32 17-58 43-80 78-19-18-36-29-52-34z" fill="#f4cf48"/>
  <text x="52" y="315" fill="#22525b" font-family="Arial, sans-serif" font-size="54" font-weight="900">Tumble Leaf</text>
</svg>
